<?xml version="1.0" encoding="UTF-8"?>
<svg xmlns="http://www.w3.org/2000/svg" width="46" height="46" viewBox="0 0 46 46" fill="none"> <path d="M21.6363 28.4375L15.1667 21.589L17.1103 19.5316L21.6363 24.3227L30.2857 15.1667L32.2292 17.224L21.6363 28.4375Z" fill="#DAE5F1"/> <path d="M22.75 1.89581L38.3281 5.3576C38.7491 5.45119 39.1256 5.68552 39.3954 6.02191C39.6653 6.35831 39.8124 6.77667 39.8125 7.20794V26.1416C39.8124 28.0142 39.3499 29.8578 38.4662 31.5087C37.5826 33.1597 36.305 34.567 34.7468 35.6056L22.75 43.6041L10.7532 35.6056C9.19531 34.5671 7.91787 33.1602 7.0342 31.5096C6.15053 29.859 5.68795 28.0158 5.6875 26.1435V7.20794C5.68757 6.77667 5.83469 6.35831 6.10456 6.02191C6.37444 5.68552 6.75094 5.45119 7.17194 5.3576L22.75 1.89581ZM22.75 5.78038L9.47917 8.7284V26.1416C9.47919 27.39 9.78738 28.619 10.3764 29.7196C10.9654 30.8202 11.817 31.7584 12.8556 32.451L22.75 39.0485L32.6444 32.451C33.6827 31.7586 34.5342 30.8207 35.1232 29.7204C35.7122 28.6202 36.0205 27.3915 36.0208 26.1435V8.7284L22.75 5.78038Z" fill="#DAE5F1"/> </svg>