<?xml version="1.0" encoding="UTF-8"?>
<svg xmlns="http://www.w3.org/2000/svg" width="62" height="60" viewBox="0 0 62 60" fill="none"> <ellipse cx="30.5455" cy="30" rx="30.5455" ry="30" fill="#2A8C22"/> <g clip-path="url(#clip0)"> <path d="M25.4151 31.8902C25.7292 31.8902 25.9837 31.6477 25.9837 31.3485C25.9837 31.0492 25.7292 30.8067 25.4151 30.8067H22.8481V29.1822C22.8481 28.8829 22.5935 28.6405 22.2794 28.6405C21.9653 28.6405 21.7108 28.8829 21.7108 29.1822V30.8067H19.7124V24.5508C19.7124 24.1522 19.3873 23.84 18.9724 23.84H13.1413C12.6717 23.84 12.3037 24.2273 12.3037 24.7218V48.1181C12.3037 48.6126 12.6717 49 13.1413 49H25.1461C25.6079 49 25.9837 48.6044 25.9837 48.1181V42.5015C25.9837 42.2022 25.7292 41.9598 25.4151 41.9598C25.1009 41.9598 24.8464 42.2022 24.8464 42.5015V47.9166H13.4411V24.9234H18.5751V26.2866H16.6543C16.3402 26.2866 16.0856 26.5291 16.0856 26.8283C16.0856 27.1276 16.3402 27.3701 16.6543 27.3701H18.5751V29.3371H16.8517C16.5375 29.3371 16.283 29.5796 16.283 29.8788C16.283 30.1781 16.5375 30.4205 16.8517 30.4205H18.5751V35.207C18.5751 35.5063 18.8296 35.7487 19.1437 35.7487H24.8464V39.9827C24.8464 40.282 25.1009 40.5245 25.4151 40.5245C25.7292 40.5245 25.9837 40.282 25.9837 39.9827V35.376C25.9837 34.937 25.5872 34.6653 25.2199 34.6653H22.8481V31.8902H25.4151ZM21.7108 34.6653H19.7124V31.8902H21.7107L21.7108 34.6653Z" fill="white"/> <path d="M43.9558 37.0679V34.3915V29.4878C43.9558 29.4876 43.9558 29.4873 43.9558 29.4871V27.9243V21.9071C43.9558 21.9069 43.9558 21.9066 43.9558 21.9064V21.4572V18.6583H45.04C45.5458 18.6583 45.9574 18.2578 45.9574 17.7656V17.7158H48.8417C49.0882 17.7158 49.3144 17.638 49.4906 17.509C49.5225 17.4881 49.5528 17.4639 49.5807 17.4359C49.587 17.4296 49.5924 17.4228 49.5983 17.4163C49.7598 17.2575 49.8589 17.0485 49.8589 16.8191V13.8392C49.8589 13.3446 49.4026 12.9424 48.8417 12.9424H45.9575V12.8926C45.9575 12.4004 45.5459 12 45.04 12H37.9608C37.455 12 37.0433 12.4004 37.0433 12.8926V12.9424H35.9909H29.7978C29.7971 12.9424 29.7965 12.9424 29.7959 12.9424H29.3341H21.3655C20.8035 12.9424 20.3462 13.3446 20.3462 13.8392V16.819C20.3462 17.3135 20.8035 17.7157 21.3655 17.7157H24.0142V19.5841L21.955 21.7152H21.4463C20.9591 21.7152 20.5628 22.1008 20.5628 22.5748V25.1093C20.5628 25.5843 20.9591 25.9709 21.4463 25.9709H27.6934C28.1818 25.9709 28.5791 25.5843 28.5791 25.1093V22.5748C28.5791 22.1008 28.1818 21.7152 27.6934 21.7152H27.1868L25.1275 19.5841V17.7158H29.3342H35.991H37.0434V17.7656C37.0434 18.2578 37.455 18.6583 37.9609 18.6583H39.045V21.457V27.9242V34.3914V40.3166H37.3006C36.529 40.3166 35.9013 40.927 35.9013 41.6773V45.2123H35.2905C34.2157 45.2123 33.3413 46.0624 33.3413 47.1072V48.095C33.3413 48.594 33.7596 48.9999 34.2737 48.9999H48.9033C49.4163 48.9999 49.8335 48.594 49.8335 48.095V47.1072C49.8335 46.0624 48.96 45.2123 47.8865 45.2123H47.2758V41.6773C47.2758 40.927 46.647 40.3166 45.8743 40.3166H43.9558V37.0686C43.9558 37.0684 43.9558 37.0681 43.9558 37.0679ZM48.7457 14.0266V15.8911L46.7733 14.0265L48.7457 14.0266ZM45.9575 14.766L47.9311 16.6318H45.9575V14.766ZM21.4595 16.6315V14.0264H21.7681L24.5231 16.6316L21.4595 16.6315ZM27.4657 22.7992V24.887H21.676V22.7992H27.4657ZM25.6581 21.7152H23.4835L24.5708 20.59L25.6581 21.7152ZM23.366 14.0264H28.4248L25.8954 16.4182L23.366 14.0264ZM29.3342 16.6318L27.2676 16.6317L29.7969 14.2399L32.3263 16.6318H29.3342ZM31.169 14.0264H35.9909H36.2278L33.6984 16.4182L31.169 14.0264ZM35.9909 16.6318H35.0705L37.0433 14.7663V16.6318H35.9909ZM45.8742 41.4006C46.0332 41.4006 46.1624 41.5248 46.1624 41.6774V45.2124H42.9215C42.614 45.2124 42.3649 45.455 42.3649 45.7544C42.3649 46.0538 42.614 46.2964 42.9215 46.2964H47.8865C48.3462 46.2964 48.7202 46.6601 48.7202 47.1073V47.916H34.4546V47.1073C34.4546 46.6601 34.8296 46.2964 35.2905 46.2964H40.2258C40.5332 46.2964 40.7824 46.0538 40.7824 45.7544C40.7824 45.455 40.5332 45.2124 40.2258 45.2124H37.0145V41.6774C37.0145 41.5274 37.1456 41.4006 37.3006 41.4006H39.6016H43.3991H45.8742ZM42.6215 21.9067L40.1583 24.3653V21.457V19.448L42.6215 21.9067ZM40.9222 18.6583H42.8425V20.575L40.9222 18.6583ZM42.8425 23.2384V27.9242V28.1556L40.3792 25.6969L42.8425 23.2384ZM42.6215 29.4874L40.1583 31.9461V27.9242V27.0287L42.6215 29.4874ZM42.8425 30.8192V34.3915V35.7365L40.3792 33.2778L42.8425 30.8192ZM42.6215 37.0683L40.1583 39.5269V34.6096L42.6215 37.0683ZM42.8425 38.4V40.3166H40.9222L42.8425 38.4ZM43.3991 17.5743H39.6089C39.6086 17.5743 39.6081 17.5743 39.6077 17.5743H39.6016H38.1565V13.084H44.8441V17.5743H43.3991Z" fill="white"/> <path d="M20.9775 41.5572H22.4617C22.8716 41.5572 23.2039 41.2337 23.2039 40.8345V39.3892C23.2039 38.9901 22.8716 38.6666 22.4617 38.6666H20.9775C20.5676 38.6666 20.2354 38.9901 20.2354 39.3892V40.8345C20.2354 41.2337 20.5676 41.5572 20.9775 41.5572Z" fill="white"/> <path d="M20.9775 46.6157H22.4617C22.8716 46.6157 23.2039 46.2922 23.2039 45.8931V44.4477C23.2039 44.0486 22.8716 43.7251 22.4617 43.7251H20.9775C20.5676 43.7251 20.2354 44.0486 20.2354 44.4477V45.8931C20.2354 46.2922 20.5676 46.6157 20.9775 46.6157Z" fill="white"/> <path d="M15.7822 36.4986H17.2664C17.6763 36.4986 18.0086 36.1751 18.0086 35.776V34.3307C18.0086 33.9315 17.6763 33.608 17.2664 33.608H15.7822C15.3723 33.608 15.04 33.9315 15.04 34.3307V35.776C15.04 36.1751 15.3723 36.4986 15.7822 36.4986Z" fill="white"/> <path d="M15.7822 41.5572H17.2664C17.6763 41.5572 18.0086 41.2337 18.0086 40.8345V39.3892C18.0086 38.9901 17.6763 38.6666 17.2664 38.6666H15.7822C15.3723 38.6666 15.04 38.9901 15.04 39.3892V40.8345C15.04 41.2337 15.3723 41.5572 15.7822 41.5572Z" fill="white"/> <path d="M15.7822 46.6157H17.2664C17.6763 46.6157 18.0086 46.2922 18.0086 45.8931V44.4477C18.0086 44.0486 17.6763 43.7251 17.2664 43.7251H15.7822C15.3723 43.7251 15.04 44.0486 15.04 44.4477V45.8931C15.04 46.2922 15.3723 46.6157 15.7822 46.6157Z" fill="white"/> </g> <defs> <clipPath id="clip0"> <rect width="38" height="37" fill="white" transform="translate(12 12)"/> </clipPath> </defs> </svg>