<?xml version="1.0" encoding="UTF-8"?>
<svg xmlns="http://www.w3.org/2000/svg" width="62" height="60" viewBox="0 0 62 60" fill="none"> <ellipse cx="30.5455" cy="30" rx="30.5455" ry="30" fill="#B20342"/> <path d="M47.3281 20.6722H33.2266V12.7227C33.2266 12.3236 32.8943 12 32.4844 12H14.6719C14.262 12 13.9297 12.3236 13.9297 12.7227V48.2773C13.9297 48.6763 14.262 48.9999 14.6719 48.9999H32.4844H47.3281C47.738 48.9999 48.0703 48.6763 48.0703 48.2773V21.3948C48.0703 20.9957 47.738 20.6722 47.3281 20.6722ZM33.2266 22.1175H46.5859V40.328H33.2266V22.1175ZM21.3516 47.5546V41.7734H25.8047V47.5546H21.3516ZM26.5469 40.328H20.6094C20.1995 40.328 19.8672 40.6517 19.8672 41.0507V47.5546H15.4141V13.4453H31.7422V47.5546H27.2891V41.0507C27.2891 40.6517 26.9567 40.328 26.5469 40.328ZM33.2265 47.5546V41.7734H46.5859V47.5546H33.2265Z" fill="white"/> <path d="M22.8354 17.7815H24.3196C24.7295 17.7815 25.0618 17.458 25.0618 17.0588V15.6135C25.0618 15.2144 24.7295 14.8909 24.3196 14.8909H22.8354C22.4255 14.8909 22.0933 15.2144 22.0933 15.6135V17.0588C22.0933 17.458 22.4255 17.7815 22.8354 17.7815Z" fill="white"/> <path d="M22.8354 22.8401H24.3196C24.7295 22.8401 25.0618 22.5166 25.0618 22.1174V20.6721C25.0618 20.273 24.7295 19.9495 24.3196 19.9495H22.8354C22.4255 19.9495 22.0933 20.273 22.0933 20.6721V22.1174C22.0933 22.5166 22.4255 22.8401 22.8354 22.8401Z" fill="white"/> <path d="M22.8354 27.8987H24.3196C24.7295 27.8987 25.0618 27.5751 25.0618 27.176V25.7307C25.0618 25.3316 24.7295 25.0081 24.3196 25.0081H22.8354C22.4255 25.0081 22.0933 25.3316 22.0933 25.7307V27.176C22.0933 27.5751 22.4255 27.8987 22.8354 27.8987Z" fill="white"/> <path d="M22.8359 32.957H24.3201C24.73 32.957 25.0623 32.6335 25.0623 32.2344V30.7891C25.0623 30.3899 24.73 30.0664 24.3201 30.0664H22.8359C22.426 30.0664 22.0938 30.3899 22.0938 30.7891V32.2344C22.0938 32.6335 22.426 32.957 22.8359 32.957Z" fill="white"/> <path d="M22.8359 38.0156H24.3201C24.73 38.0156 25.0623 37.6921 25.0623 37.293V35.8477C25.0623 35.4485 24.73 35.125 24.3201 35.125H22.8359C22.426 35.125 22.0938 35.4485 22.0938 35.8477V37.293C22.0938 37.6921 22.426 38.0156 22.8359 38.0156Z" fill="white"/> <path d="M17.6411 17.7815H19.1253C19.5352 17.7815 19.8675 17.458 19.8675 17.0588V15.6135C19.8675 15.2144 19.5352 14.8909 19.1253 14.8909H17.6411C17.2312 14.8909 16.8989 15.2144 16.8989 15.6135V17.0588C16.8989 17.458 17.2312 17.7815 17.6411 17.7815Z" fill="white"/> <path d="M17.6411 22.8401H19.1253C19.5352 22.8401 19.8675 22.5166 19.8675 22.1174V20.6721C19.8675 20.273 19.5352 19.9495 19.1253 19.9495H17.6411C17.2312 19.9495 16.8989 20.273 16.8989 20.6721V22.1174C16.8989 22.5166 17.2312 22.8401 17.6411 22.8401Z" fill="white"/> <path d="M17.6406 27.8984H19.1248C19.5347 27.8984 19.867 27.5749 19.867 27.1758V25.7305C19.867 25.3313 19.5347 25.0078 19.1248 25.0078H17.6406C17.2307 25.0078 16.8984 25.3313 16.8984 25.7305V27.1758C16.8984 27.5749 17.2307 27.8984 17.6406 27.8984Z" fill="white"/> <path d="M17.6406 32.957H19.1248C19.5347 32.957 19.867 32.6335 19.867 32.2344V30.7891C19.867 30.3899 19.5347 30.0664 19.1248 30.0664H17.6406C17.2307 30.0664 16.8984 30.3899 16.8984 30.7891V32.2344C16.8984 32.6335 17.2307 32.957 17.6406 32.957Z" fill="white"/> <path d="M17.6406 38.0156H19.1248C19.5347 38.0156 19.867 37.6921 19.867 37.293V35.8477C19.867 35.4485 19.5347 35.125 19.1248 35.125H17.6406C17.2307 35.125 16.8984 35.4485 16.8984 35.8477V37.293C16.8984 37.6921 17.2307 38.0156 17.6406 38.0156Z" fill="white"/> <path d="M29.5159 14.8909H28.0317C27.6218 14.8909 27.2896 15.2144 27.2896 15.6135V17.0588C27.2896 17.458 27.6218 17.7815 28.0317 17.7815H29.5159C29.9258 17.7815 30.2581 17.458 30.2581 17.0588V15.6135C30.2581 15.2144 29.9258 14.8909 29.5159 14.8909Z" fill="white"/> <path d="M29.5159 19.9492H28.0317C27.6218 19.9492 27.2896 20.2728 27.2896 20.6719V22.1172C27.2896 22.5163 27.6218 22.8398 28.0317 22.8398H29.5159C29.9258 22.8398 30.2581 22.5163 30.2581 22.1172V20.6719C30.2581 20.2728 29.9258 19.9492 29.5159 19.9492Z" fill="white"/> <path d="M29.5159 25.0078H28.0317C27.6218 25.0078 27.2896 25.3313 27.2896 25.7305V27.1758C27.2896 27.5749 27.6218 27.8984 28.0317 27.8984H29.5159C29.9258 27.8984 30.2581 27.5749 30.2581 27.1758V25.7305C30.2581 25.3314 29.9258 25.0078 29.5159 25.0078Z" fill="white"/> <path d="M29.5159 30.0664H28.0317C27.6218 30.0664 27.2896 30.3899 27.2896 30.7891V32.2344C27.2896 32.6335 27.6218 32.957 28.0317 32.957H29.5159C29.9258 32.957 30.2581 32.6335 30.2581 32.2344V30.7891C30.2581 30.39 29.9258 30.0664 29.5159 30.0664Z" fill="white"/> <path d="M29.5159 35.125H28.0317C27.6218 35.125 27.2896 35.4485 27.2896 35.8477V37.293C27.2896 37.6921 27.6218 38.0156 28.0317 38.0156H29.5159C29.9258 38.0156 30.2581 37.6921 30.2581 37.293V35.8477C30.2581 35.4485 29.9258 35.125 29.5159 35.125Z" fill="white"/> <path d="M43.2459 25.0078H41.7617C41.3518 25.0078 41.0195 25.3313 41.0195 25.7305V27.1758C41.0195 27.5749 41.3518 27.8984 41.7617 27.8984H43.2459C43.6558 27.8984 43.9881 27.5749 43.9881 27.1758V25.7305C43.9881 25.3314 43.6557 25.0078 43.2459 25.0078Z" fill="white"/> <path d="M43.2459 30.0664H41.7617C41.3518 30.0664 41.0195 30.3899 41.0195 30.7891V32.2344C41.0195 32.6335 41.3518 32.957 41.7617 32.957H43.2459C43.6558 32.957 43.9881 32.6335 43.9881 32.2344V30.7891C43.9881 30.39 43.6557 30.0664 43.2459 30.0664Z" fill="white"/> <path d="M43.2459 35.125H41.7617C41.3518 35.125 41.0195 35.4485 41.0195 35.8477V37.293C41.0195 37.6921 41.3518 38.0156 41.7617 38.0156H43.2459C43.6558 38.0156 43.9881 37.6921 43.9881 37.293V35.8477C43.9881 35.4485 43.6557 35.125 43.2459 35.125Z" fill="white"/> <path d="M38.051 25.0078H36.5669C36.157 25.0078 35.8247 25.3313 35.8247 25.7305V27.1758C35.8247 27.5749 36.157 27.8984 36.5669 27.8984H38.051C38.461 27.8984 38.7932 27.5749 38.7932 27.1758V25.7305C38.7932 25.3314 38.4609 25.0078 38.051 25.0078Z" fill="white"/> <path d="M38.051 30.0664H36.5669C36.157 30.0664 35.8247 30.3899 35.8247 30.7891V32.2344C35.8247 32.6335 36.157 32.957 36.5669 32.957H38.051C38.461 32.957 38.7932 32.6335 38.7932 32.2344V30.7891C38.7932 30.39 38.4609 30.0664 38.051 30.0664Z" fill="white"/> <path d="M38.051 35.125H36.5669C36.157 35.125 35.8247 35.4485 35.8247 35.8477V37.293C35.8247 37.6921 36.157 38.0156 36.5669 38.0156H38.051C38.461 38.0156 38.7932 37.6921 38.7932 37.293V35.8477C38.7932 35.4485 38.4609 35.125 38.051 35.125Z" fill="white"/> </svg>