<?xml version="1.0" encoding="UTF-8"?>
<svg xmlns="http://www.w3.org/2000/svg" width="46" height="46" viewBox="0 0 46 46" fill="none"> <path d="M18.9074 34.1231H26.5932C26.8434 31.8443 28.0056 29.9636 29.8919 27.9105C30.1061 27.6792 31.4692 26.2668 31.6304 26.0658C32.9694 24.393 33.8087 22.376 34.0516 20.2471C34.2945 18.1182 33.9312 15.9639 33.0034 14.0325C32.0757 12.101 30.6213 10.4708 28.8077 9.32973C26.9941 8.18862 24.8951 7.58296 22.7524 7.58251C20.6096 7.58205 18.5103 8.18681 16.6963 9.32715C14.8822 10.4675 13.4271 12.097 12.4985 14.0281C11.57 15.9592 11.2057 18.1132 11.4477 20.2422C11.6897 22.3713 12.5281 24.3886 13.8664 26.062C14.0295 26.2649 15.3964 27.6792 15.6068 27.9086C17.4951 29.9636 18.6572 31.8443 18.9074 34.1231ZM26.542 37.9148H18.9586V39.8106H26.542V37.9148ZM10.9089 28.4356C9.12342 26.2048 8.00441 23.5149 7.68083 20.6759C7.35724 17.8369 7.84223 14.9642 9.07993 12.3888C10.3176 9.81336 12.2577 7.63997 14.6766 6.11896C17.0956 4.59795 19.895 3.79121 22.7524 3.79167C25.6097 3.79213 28.4089 4.59977 30.8273 6.12155C33.2458 7.64333 35.1851 9.81735 36.422 12.3932C37.6589 14.969 38.143 17.8418 37.8185 20.6807C37.494 23.5196 36.3741 26.2091 34.5879 28.4394C33.4125 29.903 30.3336 32.2273 30.3336 35.071V39.8106C30.3336 40.8162 29.9342 41.7806 29.2231 42.4917C28.512 43.2028 27.5476 43.6023 26.542 43.6023H18.9586C17.953 43.6023 16.9886 43.2028 16.2775 42.4917C15.5665 41.7806 15.167 40.8162 15.167 39.8106V35.071C15.167 32.2273 12.0862 29.903 10.9089 28.4356ZM24.6461 18.964H29.3857L20.8545 30.339V22.7557H16.1149L24.6461 11.3731V18.9659V18.964Z" fill="#DAE5F1"/> </svg>