<?xml version="1.0" encoding="UTF-8"?>
<svg xmlns="http://www.w3.org/2000/svg" width="46" height="46" viewBox="0 0 46 46" fill="none"> <path d="M39.8125 37.9163C39.8125 38.4191 39.6128 38.9013 39.2572 39.2569C38.9017 39.6124 38.4195 39.8122 37.9167 39.8122H7.58333C7.08053 39.8122 6.59831 39.6124 6.24278 39.2569C5.88724 38.9013 5.6875 38.4191 5.6875 37.9163V17.9911C5.6873 17.7022 5.75313 17.4171 5.87996 17.1575C6.00679 16.8979 6.19126 16.6708 6.41929 16.4934L21.586 4.69754C21.9188 4.43865 22.3284 4.2981 22.75 4.2981C23.1716 4.2981 23.5812 4.43865 23.914 4.69754L39.0807 16.4934C39.3087 16.6708 39.4932 16.8979 39.62 17.1575C39.7469 17.4171 39.8127 17.7022 39.8125 17.9911V37.9163ZM36.0208 36.0205V18.9163L22.75 8.59537L9.47917 18.9163V36.0205H36.0208Z" fill="#DAE5F1"/> </svg>