<?xml version="1.0" encoding="UTF-8"?> <svg xmlns="http://www.w3.org/2000/svg" width="155" height="52" viewBox="0 0 155 52" fill="none"> <path d="M148.905 42.63C148.905 42.7386 148.928 42.8459 148.974 42.9445C149.02 43.0431 149.086 43.1306 149.169 43.201C149.251 43.2713 149.349 43.3229 149.453 43.3521C149.558 43.3813 149.667 43.3874 149.775 43.37C150.365 43.37 150.635 43.09 150.675 42.63H150.215C150.215 42.86 150.115 43.06 149.795 43.06C149.475 43.06 149.405 42.85 149.375 42.63H148.905ZM148.045 43.63V48.27H148.685L150.135 45.96C150.454 45.4586 150.741 44.9376 150.995 44.4C150.995 44.99 150.935 45.54 150.935 46.29V48.29H151.495V43.6H150.895L149.435 46C149.095 46.55 148.805 47.05 148.575 47.54C148.575 46.92 148.635 46.31 148.635 45.54V43.54L148.045 43.63ZM141.185 43.63V48.27H141.825L143.275 45.96C143.594 45.4586 143.881 44.9376 144.135 44.4C144.135 44.99 144.075 45.54 144.075 46.29V48.29H144.635V43.6H144.035L142.575 46C142.235 46.55 141.945 47.05 141.715 47.54C141.715 46.92 141.765 46.31 141.765 45.54V43.54L141.185 43.63ZM134.365 43.63V48.27H134.965V46.06H137.205V48.24H137.815V43.6H137.205V45.54H134.965V43.6L134.365 43.63ZM128.695 46.34L129.145 45C129.235 44.72 129.315 44.44 129.375 44.16C129.445 44.43 129.515 44.7 129.615 45.01L130.065 46.35L128.695 46.34ZM130.215 46.81L130.715 48.27H131.355L129.775 43.63H129.035L127.455 48.27H128.075L128.555 46.81H130.215ZM121.095 43.63V48.27H121.695V44.1H123.855V48.24H124.455V43.6L121.095 43.63ZM117.255 48.27H117.845L117.555 43.63H116.795L115.965 45.87C115.755 46.46 115.595 46.97 115.475 47.43C115.355 46.95 115.195 46.43 115.005 45.87L114.215 43.63H113.455L113.135 48.27H113.705L113.825 46.27C113.825 45.57 113.905 44.8 113.915 44.22C114.045 44.77 114.235 45.37 114.455 46.02L115.205 48.23H115.655L116.475 45.98C116.705 45.34 116.905 44.76 117.065 44.22C117.065 44.8 117.065 45.58 117.135 46.22L117.255 48.27ZM108.035 44C109.035 44 109.515 45 109.515 45.89C109.515 46.78 108.975 47.82 108.025 47.82C107.075 47.82 106.545 46.93 106.545 45.94C106.545 44.95 107.035 44 108.035 44ZM108.035 43.51C107.726 43.5185 107.423 43.5917 107.145 43.7249C106.867 43.858 106.62 44.0482 106.42 44.283C106.22 44.5178 106.072 44.7919 105.985 45.0877C105.898 45.3835 105.874 45.6944 105.915 46C105.89 46.2936 105.926 46.5892 106.021 46.8681C106.116 47.147 106.269 47.4031 106.468 47.6202C106.667 47.8373 106.909 48.0107 107.179 48.1295C107.449 48.2482 107.74 48.3097 108.035 48.31C108.343 48.311 108.648 48.2462 108.929 48.1201C109.211 47.9939 109.462 47.8092 109.666 47.5784C109.871 47.3475 110.024 47.0757 110.115 46.7811C110.206 46.4866 110.233 46.1759 110.195 45.87C110.229 45.5692 110.199 45.2644 110.105 44.9765C110.011 44.6885 109.857 44.4241 109.652 44.2012C109.447 43.9782 109.197 43.802 108.918 43.6845C108.638 43.5669 108.337 43.5108 108.035 43.52V43.51ZM100.225 43.59V48.23H100.815V46.11H101.035C101.334 46.0944 101.629 46.1868 101.865 46.3704C102.102 46.5539 102.265 46.8164 102.325 47.11C102.439 47.4829 102.579 47.8471 102.745 48.2H103.395C103.199 47.7702 103.029 47.3295 102.885 46.88C102.816 46.5712 102.655 46.2908 102.423 46.0763C102.19 45.8618 101.898 45.7235 101.585 45.68L103.345 43.55H102.625L101.035 45.66H100.845V43.6L100.225 43.59ZM90.9347 46.31L91.3947 45C91.4847 44.72 91.5547 44.44 91.6247 44.16C91.6947 44.43 91.7647 44.7 91.8647 45.01L92.3147 46.35L90.9347 46.31ZM92.4547 46.78L92.9547 48.24H93.5947L92.0347 43.6H91.3147L89.7347 48.24H90.3547L90.8347 46.78H92.4547ZM83.3347 43.6V48.24H83.9347V44.1H86.0947V48.24H86.6947V43.6H83.3347ZM76.6047 43.6V48.24H77.2047V44.1H79.3647V48.24H79.9647V43.6H76.6047ZM70.1847 43.6L71.7247 46.73C71.7493 46.7726 71.7622 46.8209 71.7622 46.87C71.7622 46.9191 71.7493 46.9674 71.7247 47.01C71.5847 47.34 71.2947 47.8 70.8147 47.81H70.5947L70.5347 48.3C70.6472 48.3194 70.7622 48.3194 70.8747 48.3C71.0824 48.295 71.2859 48.2408 71.4684 48.1417C71.651 48.0426 71.8074 47.9015 71.9247 47.73C72.283 47.1872 72.5814 46.6071 72.8147 46L73.8147 43.62H73.1847L72.4647 45.62L72.1747 46.46L71.8347 45.64L70.9147 43.64L70.1847 43.6ZM65.3847 44.09C65.5708 44.0692 65.7586 44.0692 65.9447 44.09C66.6047 44.09 67.0447 44.39 67.0447 45C67.0447 45.61 66.6047 46 65.8847 46C65.7187 46.0209 65.5507 46.0209 65.3847 46V44.09ZM64.7847 48.24H65.3847V46.38C65.5441 46.3988 65.7052 46.3988 65.8647 46.38C66.1236 46.3953 66.3828 46.358 66.6269 46.2703C66.8709 46.1827 67.0947 46.0465 67.2847 45.87C67.4083 45.7357 67.5038 45.5781 67.5656 45.4063C67.6274 45.2346 67.6543 45.0523 67.6447 44.87C67.6555 44.6833 67.6243 44.4965 67.5533 44.3234C67.4824 44.1503 67.3735 43.9954 67.2347 43.87C66.8637 43.5852 66.4012 43.4465 65.9347 43.48C65.5495 43.478 65.1649 43.5081 64.7847 43.57V48.24ZM154.725 37.76C154.726 37.9014 154.673 38.0379 154.575 38.14C154.429 38.2739 154.249 38.364 154.055 38.4C153.726 38.4772 153.392 38.5274 153.055 38.55C152.635 38.55 152.105 38.55 151.455 38.55C150.805 38.55 150.205 38.55 149.785 38.55C149.447 38.527 149.111 38.47 148.785 38.38C148.568 38.3277 148.369 38.221 148.205 38.07C148.072 37.9309 147.973 37.7633 147.915 37.58L145.415 31.58C145.12 30.8191 144.752 30.089 144.315 29.4C143.965 28.8684 143.533 28.3958 143.035 28C142.566 27.638 142.028 27.3759 141.455 27.23C140.8 27.0725 140.128 26.9952 139.455 27H138.035V37.74C138.036 37.8814 137.983 38.0179 137.885 38.12C137.744 38.2511 137.572 38.3441 137.385 38.39C137.059 38.4848 136.723 38.5418 136.385 38.56C135.995 38.56 135.475 38.56 134.865 38.56C134.255 38.56 133.755 38.56 133.345 38.56C133.006 38.5418 132.67 38.4848 132.345 38.39C132.153 38.3404 131.975 38.2481 131.825 38.12C131.773 38.0713 131.732 38.0123 131.705 37.9469C131.677 37.8815 131.663 37.811 131.665 37.74V12.49C131.663 12.419 131.677 12.3485 131.705 12.2831C131.732 12.2177 131.773 12.1587 131.825 12.11C131.975 11.983 132.153 11.8939 132.345 11.85C132.673 11.7706 133.008 11.7204 133.345 11.7C133.755 11.7 134.265 11.7 134.865 11.7C135.465 11.7 135.995 11.7 136.385 11.7C136.722 11.7167 137.057 11.7669 137.385 11.85C137.572 11.89 137.745 11.9798 137.885 12.11C137.934 12.1599 137.973 12.2193 137.999 12.2847C138.024 12.35 138.037 12.4198 138.035 12.49V22.49H139.455C140.097 22.4987 140.737 22.4145 141.355 22.24C141.893 22.0757 142.395 21.811 142.835 21.46C143.307 21.0647 143.713 20.5952 144.035 20.07C144.425 19.4089 144.759 18.7166 145.035 18L147.125 12.68C147.194 12.5052 147.292 12.3431 147.415 12.2C147.561 12.0464 147.748 11.9386 147.955 11.89C148.281 11.7975 148.616 11.7405 148.955 11.72C149.355 11.72 149.905 11.72 150.595 11.72C151.285 11.72 151.735 11.72 152.135 11.72C152.472 11.7396 152.807 11.7898 153.135 11.87C153.315 11.898 153.481 11.9861 153.605 12.12C153.687 12.2293 153.729 12.3634 153.725 12.5C153.718 12.7239 153.681 12.9459 153.615 13.16C153.508 13.5007 153.381 13.8346 153.235 14.16L151.155 18.9C150.827 19.677 150.442 20.429 150.005 21.15C149.662 21.7202 149.256 22.2502 148.795 22.73C148.401 23.1454 147.95 23.5024 147.455 23.79C146.961 24.0737 146.438 24.3017 145.895 24.47C146.495 24.6894 147.077 24.9569 147.635 25.27C148.147 25.5909 148.617 25.9738 149.035 26.41C149.53 26.9218 149.969 27.485 150.345 28.09C150.82 28.875 151.245 29.69 151.615 30.53L154.165 36.07C154.354 36.4451 154.507 36.8367 154.625 37.24C154.677 37.4091 154.711 37.5835 154.725 37.76ZM94.7247 37.76C94.7264 37.9014 94.6725 38.0379 94.5747 38.14C94.4293 38.2739 94.249 38.364 94.0547 38.4C93.726 38.4774 93.3916 38.5275 93.0547 38.55C92.6247 38.55 92.0547 38.55 91.4347 38.55C90.8147 38.55 90.2047 38.55 89.7747 38.55C89.4365 38.5274 89.1014 38.4704 88.7747 38.38C88.5664 38.329 88.3762 38.2218 88.2247 38.07C88.0947 37.9271 87.9929 37.7608 87.9247 37.58L85.6947 31.52C85.44 30.7725 85.1047 30.0549 84.6947 29.38C84.3611 28.8511 83.9381 28.3842 83.4447 28C82.9945 27.643 82.4726 27.3872 81.9147 27.25C81.278 27.0839 80.6227 26.9999 79.9647 27H78.7447V37.74C78.7464 37.8814 78.6925 38.0179 78.5947 38.12C78.4602 38.2492 78.295 38.3422 78.1147 38.39C77.8053 38.4817 77.4867 38.5387 77.1647 38.56C76.7747 38.56 76.2647 38.56 75.6647 38.56C75.0647 38.56 74.5547 38.56 74.1547 38.56C73.8327 38.5387 73.5141 38.4817 73.2047 38.39C73.0273 38.3423 72.8653 38.2492 72.7347 38.12C72.6459 38.0138 72.5995 37.8784 72.6047 37.74V27H71.3847C70.6924 26.9878 70.002 27.0754 69.3347 27.26C68.7647 27.4153 68.2334 27.6878 67.7747 28.06C67.3061 28.4511 66.9101 28.9216 66.6047 29.45C66.2339 30.0867 65.9226 30.7562 65.6747 31.45L63.4747 37.51C63.4065 37.6908 63.3047 37.8571 63.1747 38C63.018 38.1554 62.8203 38.263 62.6047 38.31C62.2779 38.4 61.9429 38.457 61.6047 38.48C61.1847 38.48 60.6047 38.48 59.9547 38.48C59.3047 38.48 58.7447 38.48 58.3247 38.48C57.9878 38.4574 57.6534 38.4072 57.3247 38.33C57.1303 38.294 56.9501 38.2039 56.8047 38.07C56.7069 37.9679 56.653 37.8314 56.6547 37.69C56.6547 37.62 56.6547 37.53 56.6547 37.44C56.6664 37.3246 56.6899 37.2107 56.7247 37.1C56.7247 36.97 56.8247 36.81 56.8847 36.64C56.9447 36.47 57.0447 36.25 57.1547 36L59.3047 30.67C59.6437 29.8055 60.0447 28.9667 60.5047 28.16C60.8594 27.5421 61.2857 26.9681 61.7747 26.45C62.2072 26.0012 62.7023 25.6172 63.2447 25.31C63.8172 25.0138 64.4165 24.7727 65.0347 24.59C64.4948 24.4468 63.9744 24.2386 63.4847 23.97C62.9994 23.7057 62.5576 23.3684 62.1747 22.97C61.723 22.475 61.3272 21.9318 60.9947 21.35C60.5688 20.5943 60.1978 19.809 59.8847 19L58.0347 14.16C57.8895 13.8363 57.7692 13.502 57.6747 13.16C57.6149 12.9482 57.5813 12.7299 57.5747 12.51C57.5705 12.3718 57.6167 12.2367 57.7047 12.13C57.8367 12.0014 58.0036 11.9145 58.1847 11.88C58.5128 11.7997 58.8475 11.7495 59.1847 11.73C59.5947 11.73 60.1147 11.73 60.7547 11.73C61.3947 11.73 61.9747 11.73 62.3947 11.73C62.7333 11.749 63.0688 11.806 63.3947 11.9C63.5959 11.9471 63.7775 12.0554 63.9147 12.21C64.0266 12.3534 64.1114 12.5161 64.1647 12.69L66.1647 18.34C66.393 19.0334 66.6877 19.7032 67.0447 20.34C67.2996 20.8051 67.6348 21.2215 68.0347 21.57C68.4562 21.9045 68.9434 22.1464 69.4647 22.28C70.0956 22.4377 70.7445 22.5117 71.3947 22.5H72.6147V12.5C72.6076 12.3613 72.6541 12.2252 72.7447 12.12C72.8747 11.9921 73.0372 11.9022 73.2147 11.86C73.5258 11.7796 73.8439 11.7294 74.1647 11.71C74.5547 11.71 75.0647 11.71 75.6747 11.71C76.2847 11.71 76.7847 11.71 77.1747 11.71C77.4954 11.7294 77.8136 11.7796 78.1247 11.86C78.3057 11.9005 78.4719 11.9905 78.6047 12.12C78.6541 12.1699 78.6928 12.2293 78.7186 12.2947C78.7444 12.36 78.7566 12.4298 78.7547 12.5V22.5H79.9747C80.6162 22.5102 81.2559 22.4294 81.8747 22.26C82.4044 22.1123 82.8981 21.857 83.3247 21.51C83.7675 21.1406 84.143 20.6974 84.4347 20.2C84.7901 19.5896 85.0785 18.9425 85.2947 18.27L87.2947 12.64C87.348 12.4661 87.4328 12.3034 87.5447 12.16C87.6818 12.0054 87.8635 11.8971 88.0647 11.85C88.3906 11.7561 88.726 11.6991 89.0647 11.68C89.4847 11.68 90.0647 11.68 90.7047 11.68C91.3447 11.68 91.8547 11.68 92.2647 11.68C92.6016 11.7024 92.9361 11.7525 93.2647 11.83C93.4482 11.8659 93.6179 11.9525 93.7547 12.08C93.8435 12.1862 93.8898 12.3216 93.8847 12.46C93.8776 12.6839 93.8406 12.9059 93.7747 13.12C93.7047 13.38 93.5847 13.73 93.4347 14.12L91.5847 18.82C91.2875 19.5984 90.9332 20.3538 90.5247 21.08C90.2088 21.6526 89.8225 22.1834 89.3747 22.66C88.9804 23.0708 88.5331 23.4273 88.0447 23.72C87.5371 24.0109 87.001 24.2488 86.4447 24.43C87.0669 24.6598 87.6689 24.9407 88.2447 25.27C88.785 25.5922 89.2795 25.9857 89.7147 26.44C90.1959 26.9649 90.6122 27.5457 90.9547 28.17C91.3626 29.0023 91.7231 29.857 92.0347 30.73L94.1747 36.06C94.2847 36.31 94.3747 36.52 94.4347 36.7C94.4947 36.88 94.5447 37.03 94.5947 37.16C94.6285 37.2715 94.6552 37.3851 94.6747 37.5C94.6919 37.5857 94.7019 37.6726 94.7047 37.76H94.7247ZM123.945 37.76C123.944 37.8278 123.93 37.8948 123.902 37.9568C123.875 38.0188 123.835 38.0743 123.785 38.12C123.635 38.247 123.456 38.3361 123.265 38.38C122.936 38.459 122.602 38.5092 122.265 38.53C121.855 38.53 121.345 38.53 120.745 38.53C120.145 38.53 119.635 38.53 119.225 38.53C118.887 38.5112 118.553 38.4609 118.225 38.38C118.04 38.3413 117.87 38.2511 117.735 38.12C117.639 38.0246 117.585 37.8951 117.585 37.76V23.7C117.585 23.16 117.585 22.64 117.585 22.12C117.585 21.6 117.585 21.12 117.655 20.75L117.195 21.42L116.625 22.22L115.985 23.09L115.315 23.95L104.575 37.8C104.455 37.9404 104.325 38.0708 104.185 38.19C104.027 38.3116 103.847 38.4001 103.655 38.45C103.397 38.522 103.132 38.5656 102.865 38.58C102.555 38.58 102.145 38.58 101.655 38.58C101.165 38.58 100.525 38.58 100.145 38.58C99.8406 38.5588 99.5392 38.5085 99.2447 38.43C99.0733 38.3884 98.9194 38.294 98.8047 38.16C98.7245 38.0459 98.6825 37.9094 98.6847 37.77V12.47C98.685 12.4022 98.6994 12.3352 98.7269 12.2732C98.7545 12.2112 98.7946 12.1557 98.8447 12.11C98.9945 11.9827 99.1729 11.8935 99.3647 11.85C99.6933 11.7726 100.028 11.7225 100.365 11.7C100.755 11.7 101.265 11.7 101.875 11.7C102.485 11.7 103.005 11.7 103.395 11.7C103.732 11.7205 104.066 11.7707 104.395 11.85C104.582 11.89 104.755 11.9798 104.895 12.11C104.99 12.206 105.043 12.3351 105.045 12.47V26.63C105.045 27.07 105.045 27.54 105.045 28.03C105.045 28.52 105.045 29.03 104.975 29.47C105.255 29.06 105.595 28.56 105.975 27.98C106.355 27.4 106.825 26.84 107.265 26.29L118.035 12.44C118.143 12.3092 118.264 12.1887 118.395 12.08C118.551 11.9629 118.727 11.8748 118.915 11.82C119.176 11.7473 119.444 11.7004 119.715 11.68C120.035 11.68 120.445 11.68 120.945 11.68C121.555 11.68 122.045 11.68 122.415 11.68C122.718 11.7036 123.02 11.7538 123.315 11.83C123.492 11.8722 123.655 11.9621 123.785 12.09C123.874 12.1962 123.92 12.3316 123.915 12.47L123.945 37.76ZM23.9447 20.76C24.131 20.6124 24.2586 20.4032 24.3047 20.17V20C24.3047 16.6 24.3047 13.7 24.3047 10.8C24.3047 7.43 24.3047 4.06 24.3547 1.15V1.12V1.04C24.2625 0.755378 24.0877 0.504573 23.8527 0.31941C23.6177 0.134247 23.333 0.0230749 23.0347 0L22.9047 0C18.1693 0.781198 13.7425 2.85787 10.1147 6C9.96308 6.17436 9.85502 6.38222 9.79938 6.60648C9.74375 6.83074 9.74214 7.065 9.79469 7.29C9.81865 7.40062 9.85557 7.50803 9.90469 7.61V7.68L9.95469 7.74L14.4647 12.33C17.1147 15.03 19.7747 17.73 22.6547 20.68L22.7047 20.73H22.7747C22.952 20.8284 23.155 20.8706 23.3568 20.8509C23.5586 20.8313 23.7497 20.7507 23.9047 20.62L23.9447 20.76ZM30.0347 20.15C30.0752 20.3848 30.1981 20.5974 30.3815 20.7496C30.5648 20.9018 30.7965 20.9835 31.0347 20.98C31.2019 20.9784 31.3664 20.9373 31.5147 20.86H31.5847L31.6347 20.81C34.6347 17.81 37.2147 15.14 39.8447 12.48L44.3647 7.9L44.4247 7.84V7.77C44.5543 7.51194 44.6045 7.22124 44.5689 6.93466C44.5333 6.64808 44.4135 6.3785 44.2247 6.16C40.6209 2.9633 36.1998 0.830668 31.4547 0L31.3247 0C31.0365 0.0255584 30.7616 0.133398 30.5329 0.310684C30.3042 0.487969 30.1313 0.727234 30.0347 1V1.08V1.2C30.0347 4.2 30.0347 7.53 30.0347 10.86C30.0347 13.86 30.0347 16.86 30.0347 20.06V20.16V20.15ZM50.5147 37.41C52.4977 33.4857 53.4551 29.1233 53.2977 24.7292C53.1403 20.3352 51.8733 16.0524 49.6147 12.28L49.5047 12.09L49.3847 11.9C49.1312 11.6296 48.7866 11.4626 48.4173 11.4312C48.048 11.3998 47.6802 11.5062 47.3847 11.73L47.1947 11.91L36.3247 22.26C36.2366 22.3478 36.1684 22.4536 36.1247 22.57C36.0806 22.6815 36.0568 22.8001 36.0547 22.92C36.0416 23.0129 36.0416 23.1071 36.0547 23.2C36.0789 23.2914 36.1159 23.379 36.1647 23.46L42.0347 30.58C43.8247 32.74 45.6147 34.91 47.9247 37.73L48.0447 37.87C48.196 38.0215 48.3786 38.1381 48.5797 38.2116C48.7808 38.2851 48.9955 38.3139 49.2089 38.2958C49.4222 38.2777 49.629 38.2132 49.8149 38.1068C50.0007 38.0005 50.161 37.8548 50.2847 37.68L50.3447 37.56L50.4047 37.44L50.5147 37.41ZM30.2147 26.15C30.1477 26.2798 30.0973 26.4176 30.0647 26.56V26.66C30.0347 29.49 30.0347 33.71 30.0347 38C30.0347 42.29 30.0347 46.83 29.9847 50.26V50.34V50.42C30.0806 50.6913 30.252 50.9296 30.4788 51.1068C30.7055 51.2839 30.9782 51.3926 31.2647 51.42H31.3947C32.7515 51.1886 34.0886 50.8543 35.3947 50.42C36.6684 50.0055 37.9059 49.4871 39.0947 48.87C40.2069 48.2847 41.2733 47.6161 42.2847 46.87C43.2847 46.14 44.2047 45.37 45.0647 44.64C45.177 44.5064 45.2651 44.3541 45.3247 44.19C45.3872 44.0271 45.4211 43.8545 45.4247 43.68C45.4406 43.5572 45.4406 43.4328 45.4247 43.31C45.4068 43.2035 45.3766 43.0995 45.3347 43L32.3747 26.23C32.267 26.08 32.1429 25.9425 32.0047 25.82C31.806 25.6435 31.5505 25.5441 31.2847 25.54C31.1407 25.527 30.9956 25.5434 30.8581 25.5881C30.7206 25.6328 30.5936 25.7049 30.4847 25.8C30.3751 25.9001 30.2837 26.0186 30.2147 26.15ZM24.2147 26.55C24.1853 26.408 24.1383 26.2703 24.0747 26.14C24.0115 26.0102 23.927 25.8919 23.8247 25.79C23.7158 25.6949 23.5888 25.6228 23.4513 25.5781C23.3138 25.5334 23.1687 25.517 23.0247 25.53C22.7587 25.5332 22.5029 25.6327 22.3047 25.81C22.1662 25.9322 22.042 26.0697 21.9347 26.22L9.03469 42.85C8.93069 43.0506 8.8791 43.2742 8.88469 43.5C8.8885 43.6745 8.92232 43.847 8.98469 44.01C9.04147 44.1733 9.12605 44.3255 9.23469 44.46C10.0847 45.2 11.0047 45.97 12.0047 46.7C13.013 47.4455 14.076 48.114 15.1847 48.7C16.3732 49.3204 17.6107 49.8422 18.8847 50.26C20.1907 50.6945 21.5279 51.0288 22.8847 51.26H23.0347C23.3212 51.2326 23.5938 51.1239 23.8206 50.9468C24.0474 50.7696 24.2188 50.5313 24.3147 50.26V50.18V50.1C24.3147 47.01 24.3147 42.4 24.3147 37.84C24.3147 33.68 24.3147 29.55 24.3147 26.52V26.42L24.2147 26.55ZM59.4747 43.6V48.24H60.0347V44.1H61.9047V43.6H59.4747Z" fill="white"></path> <path d="M1.56485 31.7198C2.02647 33.6905 2.71787 35.6002 3.62485 37.4098L3.68485 37.5298L3.74485 37.6498C3.88024 37.8428 4.05977 38.0006 4.2685 38.1102C4.47723 38.2198 4.70911 38.2779 4.94485 38.2798C5.32093 38.2697 5.67882 38.1158 5.94485 37.8498V37.8498L6.06485 37.7098C8.02485 35.3298 9.99485 32.9531 11.9748 30.5798C13.9548 28.2064 15.9049 25.8564 17.8249 23.5298C17.8736 23.4487 17.9107 23.3612 17.9349 23.2698C17.948 23.1769 17.948 23.0826 17.9349 22.9898C17.9327 22.8698 17.909 22.7513 17.8649 22.6398C17.8208 22.5235 17.7527 22.4178 17.6649 22.3298L7.11485 11.8898L6.92485 11.7098C6.71418 11.5515 6.46555 11.4516 6.20398 11.42C5.94241 11.3884 5.67714 11.4263 5.43485 11.5298V11.5298C5.24697 11.6082 5.07689 11.7239 4.93485 11.8698V11.8698L4.81485 12.0598L4.70485 12.2498C1.21091 18.0916 0.134569 25.0664 1.70485 31.6898L1.56485 31.7198Z" stroke="white" stroke-width="1.66" stroke-linecap="round" stroke-linejoin="round"></path> </svg> 