<?xml version="1.0" encoding="UTF-8"?> <svg xmlns="http://www.w3.org/2000/svg" width="155" height="52" viewBox="0 0 155 52" fill="none"> <path d="M148.905 42.63C148.905 42.7386 148.929 42.8459 148.974 42.9445C149.02 43.0431 149.086 43.1306 149.169 43.201C149.252 43.2713 149.349 43.3229 149.453 43.3521C149.558 43.3813 149.668 43.3874 149.775 43.37C150.365 43.37 150.635 43.09 150.675 42.63H150.215C150.215 42.86 150.115 43.06 149.795 43.06C149.475 43.06 149.405 42.85 149.375 42.63H148.905ZM148.045 43.63V48.27H148.685L150.135 45.96C150.454 45.4586 150.741 44.9376 150.995 44.4C150.995 44.99 150.935 45.54 150.935 46.29V48.29H151.495V43.6H150.895L149.435 46C149.095 46.55 148.805 47.05 148.575 47.54C148.575 46.92 148.635 46.31 148.635 45.54V43.54L148.045 43.63ZM141.185 43.63V48.27H141.825L143.275 45.96C143.594 45.4586 143.881 44.9376 144.135 44.4C144.135 44.99 144.075 45.54 144.075 46.29V48.29H144.635V43.6H144.035L142.575 46C142.235 46.55 141.945 47.05 141.715 47.54C141.715 46.92 141.765 46.31 141.765 45.54V43.54L141.185 43.63ZM134.365 43.63V48.27H134.965V46.06H137.205V48.24H137.815V43.6H137.205V45.54H134.965V43.6L134.365 43.63ZM128.695 46.34L129.145 45C129.235 44.72 129.315 44.44 129.375 44.16C129.445 44.43 129.515 44.7 129.615 45.01L130.065 46.35L128.695 46.34ZM130.215 46.81L130.715 48.27H131.355L129.775 43.63H129.035L127.455 48.27H128.075L128.555 46.81H130.215ZM121.095 43.63V48.27H121.695V44.1H123.855V48.24H124.455V43.6L121.095 43.63ZM117.255 48.27H117.845L117.555 43.63H116.795L115.965 45.87C115.755 46.46 115.595 46.97 115.475 47.43C115.355 46.95 115.195 46.43 115.005 45.87L114.215 43.63H113.455L113.135 48.27H113.705L113.825 46.27C113.825 45.57 113.905 44.8 113.915 44.22C114.045 44.77 114.235 45.37 114.455 46.02L115.205 48.23H115.655L116.475 45.98C116.705 45.34 116.905 44.76 117.065 44.22C117.065 44.8 117.065 45.58 117.135 46.22L117.255 48.27ZM108.035 44C109.035 44 109.515 45 109.515 45.89C109.515 46.78 108.975 47.82 108.025 47.82C107.075 47.82 106.545 46.93 106.545 45.94C106.545 44.95 107.035 44 108.035 44ZM108.035 43.51C107.727 43.5185 107.424 43.5917 107.146 43.7249C106.867 43.858 106.62 44.0482 106.421 44.283C106.221 44.5178 106.072 44.7919 105.985 45.0877C105.898 45.3835 105.874 45.6944 105.915 46C105.89 46.2936 105.926 46.5892 106.022 46.8681C106.117 47.147 106.269 47.4031 106.468 47.6202C106.667 47.8373 106.909 48.0107 107.179 48.1295C107.449 48.2482 107.74 48.3097 108.035 48.31C108.343 48.311 108.648 48.2462 108.93 48.1201C109.211 47.9939 109.462 47.8092 109.667 47.5784C109.871 47.3475 110.024 47.0757 110.115 46.7811C110.206 46.4866 110.233 46.1759 110.195 45.87C110.23 45.5692 110.199 45.2644 110.105 44.9765C110.012 44.6885 109.857 44.4241 109.652 44.2012C109.447 43.9782 109.197 43.802 108.918 43.6845C108.639 43.5669 108.338 43.5108 108.035 43.52V43.51ZM100.225 43.59V48.23H100.815V46.11H101.035C101.334 46.0944 101.629 46.1868 101.866 46.3704C102.102 46.5539 102.265 46.8164 102.325 47.11C102.439 47.4829 102.579 47.8471 102.745 48.2H103.395C103.2 47.7702 103.029 47.3295 102.885 46.88C102.817 46.5712 102.655 46.2908 102.423 46.0763C102.191 45.8618 101.898 45.7235 101.585 45.68L103.345 43.55H102.625L101.035 45.66H100.845V43.6L100.225 43.59ZM90.9349 46.31L91.3949 45C91.4849 44.72 91.5549 44.44 91.6249 44.16C91.6949 44.43 91.7649 44.7 91.8649 45.01L92.3149 46.35L90.9349 46.31ZM92.4549 46.78L92.9549 48.24H93.5949L92.0349 43.6H91.3149L89.7349 48.24H90.3549L90.8349 46.78H92.4549ZM83.3349 43.6V48.24H83.9349V44.1H86.0949V48.24H86.6949V43.6H83.3349ZM76.6049 43.6V48.24H77.2049V44.1H79.3649V48.24H79.9649V43.6H76.6049ZM70.1849 43.6L71.7249 46.73C71.7495 46.7726 71.7624 46.8209 71.7624 46.87C71.7624 46.9191 71.7495 46.9674 71.7249 47.01C71.5849 47.34 71.2949 47.8 70.8149 47.81H70.5949L70.5349 48.3C70.6474 48.3194 70.7624 48.3194 70.8749 48.3C71.0826 48.295 71.2861 48.2408 71.4687 48.1417C71.6513 48.0426 71.8076 47.9015 71.9249 47.73C72.2832 47.1872 72.5816 46.6071 72.8149 46L73.8149 43.62H73.1849L72.4649 45.62L72.1749 46.46L71.8349 45.64L70.9149 43.64L70.1849 43.6ZM65.3849 44.09C65.571 44.0692 65.7588 44.0692 65.9449 44.09C66.6049 44.09 67.0449 44.39 67.0449 45C67.0449 45.61 66.6049 46 65.8849 46C65.7189 46.0209 65.5509 46.0209 65.3849 46V44.09ZM64.7849 48.24H65.3849V46.38C65.5444 46.3988 65.7055 46.3988 65.8649 46.38C66.1238 46.3953 66.3831 46.358 66.6271 46.2703C66.8712 46.1827 67.0949 46.0465 67.2849 45.87C67.4085 45.7357 67.504 45.5781 67.5659 45.4063C67.6277 45.2346 67.6546 45.0523 67.6449 44.87C67.6558 44.6833 67.6246 44.4965 67.5536 44.3234C67.4826 44.1503 67.3737 43.9954 67.2349 43.87C66.864 43.5852 66.4014 43.4465 65.9349 43.48C65.5498 43.478 65.1651 43.5081 64.7849 43.57V48.24ZM154.725 37.76C154.727 37.9014 154.673 38.0379 154.575 38.14C154.43 38.2739 154.249 38.364 154.055 38.4C153.726 38.4772 153.392 38.5274 153.055 38.55C152.635 38.55 152.105 38.55 151.455 38.55C150.805 38.55 150.205 38.55 149.785 38.55C149.447 38.527 149.112 38.47 148.785 38.38C148.568 38.3277 148.369 38.221 148.205 38.07C148.072 37.9309 147.973 37.7633 147.915 37.58L145.415 31.58C145.12 30.8191 144.752 30.089 144.315 29.4C143.965 28.8684 143.533 28.3958 143.035 28C142.566 27.638 142.029 27.3759 141.455 27.23C140.8 27.0725 140.128 26.9952 139.455 27H138.035V37.74C138.037 37.8814 137.983 38.0179 137.885 38.12C137.744 38.2511 137.572 38.3441 137.385 38.39C137.059 38.4848 136.724 38.5418 136.385 38.56C135.995 38.56 135.475 38.56 134.865 38.56C134.255 38.56 133.755 38.56 133.345 38.56C133.006 38.5418 132.671 38.4848 132.345 38.39C132.153 38.3404 131.976 38.2481 131.825 38.12C131.773 38.0713 131.732 38.0123 131.705 37.9469C131.677 37.8815 131.664 37.811 131.665 37.74V12.49C131.664 12.419 131.677 12.3485 131.705 12.2831C131.732 12.2177 131.773 12.1587 131.825 12.11C131.975 11.983 132.153 11.8939 132.345 11.85C132.673 11.7706 133.008 11.7204 133.345 11.7C133.755 11.7 134.265 11.7 134.865 11.7C135.465 11.7 135.995 11.7 136.385 11.7C136.722 11.7167 137.057 11.7669 137.385 11.85C137.572 11.89 137.745 11.9798 137.885 12.11C137.934 12.1599 137.973 12.2193 137.999 12.2847C138.025 12.35 138.037 12.4198 138.035 12.49V22.49H139.455C140.097 22.4987 140.737 22.4145 141.355 22.24C141.893 22.0757 142.395 21.811 142.835 21.46C143.308 21.0647 143.713 20.5952 144.035 20.07C144.425 19.4089 144.76 18.7166 145.035 18L147.125 12.68C147.195 12.5052 147.293 12.3431 147.415 12.2C147.561 12.0464 147.749 11.9386 147.955 11.89C148.281 11.7975 148.616 11.7405 148.955 11.72C149.355 11.72 149.905 11.72 150.595 11.72C151.285 11.72 151.735 11.72 152.135 11.72C152.472 11.7396 152.807 11.7898 153.135 11.87C153.315 11.898 153.481 11.9861 153.605 12.12C153.687 12.2293 153.729 12.3634 153.725 12.5C153.718 12.7239 153.681 12.9459 153.615 13.16C153.508 13.5007 153.382 13.8346 153.235 14.16L151.155 18.9C150.827 19.677 150.443 20.429 150.005 21.15C149.662 21.7202 149.256 22.2502 148.795 22.73C148.401 23.1454 147.95 23.5024 147.455 23.79C146.962 24.0737 146.438 24.3017 145.895 24.47C146.496 24.6894 147.077 24.9569 147.635 25.27C148.147 25.5909 148.617 25.9738 149.035 26.41C149.53 26.9218 149.969 27.485 150.345 28.09C150.821 28.875 151.245 29.69 151.615 30.53L154.165 36.07C154.354 36.4451 154.508 36.8367 154.625 37.24C154.677 37.4091 154.711 37.5835 154.725 37.76ZM94.7249 37.76C94.7266 37.9014 94.6728 38.0379 94.5749 38.14C94.4295 38.2739 94.2493 38.364 94.0549 38.4C93.7263 38.4774 93.3918 38.5275 93.0549 38.55C92.6249 38.55 92.0549 38.55 91.4349 38.55C90.8149 38.55 90.2049 38.55 89.7749 38.55C89.4367 38.5274 89.1016 38.4704 88.7749 38.38C88.5667 38.329 88.3764 38.2218 88.2249 38.07C88.0949 37.9271 87.9931 37.7608 87.9249 37.58L85.6949 31.52C85.4403 30.7725 85.1049 30.0549 84.6949 29.38C84.3613 28.8511 83.9384 28.3842 83.4449 28C82.9947 27.643 82.4729 27.3872 81.9149 27.25C81.2782 27.0839 80.6229 26.9999 79.9649 27H78.7449V37.74C78.7466 37.8814 78.6928 38.0179 78.5949 38.12C78.4604 38.2492 78.2952 38.3422 78.1149 38.39C77.8056 38.4817 77.4869 38.5387 77.1649 38.56C76.7749 38.56 76.2649 38.56 75.6649 38.56C75.0649 38.56 74.5549 38.56 74.1549 38.56C73.8329 38.5387 73.5143 38.4817 73.2049 38.39C73.0275 38.3423 72.8655 38.2492 72.7349 38.12C72.6461 38.0138 72.5998 37.8784 72.6049 37.74V27H71.3849C70.6927 26.9878 70.0022 27.0754 69.3349 27.26C68.765 27.4153 68.2337 27.6878 67.7749 28.06C67.3064 28.4511 66.9103 28.9216 66.6049 29.45C66.2342 30.0867 65.9229 30.7562 65.6749 31.45L63.4749 37.51C63.4068 37.6908 63.305 37.8571 63.1749 38C63.0183 38.1554 62.8205 38.263 62.6049 38.31C62.2781 38.4 61.9431 38.457 61.6049 38.48C61.1849 38.48 60.6049 38.48 59.9549 38.48C59.3049 38.48 58.7449 38.48 58.3249 38.48C57.9881 38.4574 57.6536 38.4072 57.3249 38.33C57.1306 38.294 56.9503 38.2039 56.8049 38.07C56.7071 37.9679 56.6532 37.8314 56.6549 37.69C56.6549 37.62 56.6549 37.53 56.6549 37.44C56.6667 37.3246 56.6901 37.2107 56.7249 37.1C56.7249 36.97 56.8249 36.81 56.8849 36.64C56.9449 36.47 57.0449 36.25 57.1549 36L59.3049 30.67C59.6439 29.8055 60.045 28.9667 60.5049 28.16C60.8596 27.5421 61.2859 26.9681 61.7749 26.45C62.2075 26.0012 62.7026 25.6172 63.2449 25.31C63.8174 25.0138 64.4168 24.7727 65.0349 24.59C64.4951 24.4468 63.9746 24.2386 63.4849 23.97C62.9997 23.7057 62.5579 23.3684 62.1749 22.97C61.7232 22.475 61.3275 21.9318 60.9949 21.35C60.569 20.5943 60.198 19.809 59.8849 19L58.0349 14.16C57.8898 13.8363 57.7694 13.502 57.6749 13.16C57.6151 12.9482 57.5816 12.7299 57.5749 12.51C57.5707 12.3718 57.6169 12.2367 57.7049 12.13C57.837 12.0014 58.0039 11.9145 58.1849 11.88C58.513 11.7997 58.8477 11.7495 59.1849 11.73C59.5949 11.73 60.1149 11.73 60.7549 11.73C61.3949 11.73 61.9749 11.73 62.3949 11.73C62.7336 11.749 63.069 11.806 63.3949 11.9C63.5961 11.9471 63.7778 12.0554 63.9149 12.21C64.0269 12.3534 64.1116 12.5161 64.1649 12.69L66.1649 18.34C66.3933 19.0334 66.688 19.7032 67.0449 20.34C67.2999 20.8051 67.635 21.2215 68.0349 21.57C68.4564 21.9045 68.9437 22.1464 69.4649 22.28C70.0958 22.4377 70.7447 22.5117 71.3949 22.5H72.6149V12.5C72.6078 12.3613 72.6544 12.2252 72.7449 12.12C72.875 11.9921 73.0375 11.9022 73.2149 11.86C73.526 11.7796 73.8442 11.7294 74.1649 11.71C74.5549 11.71 75.0649 11.71 75.6749 11.71C76.2849 11.71 76.7849 11.71 77.1749 11.71C77.4957 11.7294 77.8138 11.7796 78.1249 11.86C78.3059 11.9005 78.4721 11.9905 78.6049 12.12C78.6543 12.1699 78.693 12.2293 78.7188 12.2947C78.7446 12.36 78.7569 12.4298 78.7549 12.5V22.5H79.9749C80.6164 22.5102 81.2561 22.4294 81.8749 22.26C82.4047 22.1123 82.8983 21.857 83.3249 21.51C83.7677 21.1406 84.1432 20.6974 84.4349 20.2C84.7904 19.5896 85.0787 18.9425 85.2949 18.27L87.2949 12.64C87.3483 12.4661 87.433 12.3034 87.5449 12.16C87.6821 12.0054 87.8637 11.8971 88.0649 11.85C88.3909 11.7561 88.7263 11.6991 89.0649 11.68C89.4849 11.68 90.0649 11.68 90.7049 11.68C91.3449 11.68 91.8549 11.68 92.2649 11.68C92.6018 11.7024 92.9363 11.7525 93.2649 11.83C93.4484 11.8659 93.6182 11.9525 93.7549 12.08C93.8438 12.1862 93.8901 12.3216 93.8849 12.46C93.8779 12.6839 93.8409 12.9059 93.7749 13.12C93.7049 13.38 93.5849 13.73 93.4349 14.12L91.5849 18.82C91.2878 19.5984 90.9335 20.3538 90.5249 21.08C90.2091 21.6526 89.8227 22.1834 89.3749 22.66C88.9807 23.0708 88.5334 23.4273 88.0449 23.72C87.5374 24.0109 87.0012 24.2488 86.4449 24.43C87.0671 24.6598 87.6692 24.9407 88.2449 25.27C88.7853 25.5922 89.2797 25.9857 89.7149 26.44C90.1961 26.9649 90.6125 27.5457 90.9549 28.17C91.3628 29.0023 91.7234 29.857 92.0349 30.73L94.1749 36.06C94.2849 36.31 94.3749 36.52 94.4349 36.7C94.4949 36.88 94.5449 37.03 94.5949 37.16C94.6287 37.2715 94.6554 37.3851 94.6749 37.5C94.6922 37.5857 94.7022 37.6726 94.7049 37.76H94.7249ZM123.945 37.76C123.945 37.8278 123.93 37.8948 123.903 37.9568C123.875 38.0188 123.835 38.0743 123.785 38.12C123.635 38.247 123.457 38.3361 123.265 38.38C122.937 38.459 122.602 38.5092 122.265 38.53C121.855 38.53 121.345 38.53 120.745 38.53C120.145 38.53 119.635 38.53 119.225 38.53C118.888 38.5112 118.553 38.4609 118.225 38.38C118.04 38.3413 117.87 38.2511 117.735 38.12C117.639 38.0246 117.585 37.8951 117.585 37.76V23.7C117.585 23.16 117.585 22.64 117.585 22.12C117.585 21.6 117.585 21.12 117.655 20.75L117.195 21.42L116.625 22.22L115.985 23.09L115.315 23.95L104.575 37.8C104.456 37.9404 104.325 38.0708 104.185 38.19C104.028 38.3116 103.847 38.4001 103.655 38.45C103.397 38.522 103.132 38.5656 102.865 38.58C102.555 38.58 102.145 38.58 101.655 38.58C101.165 38.58 100.525 38.58 100.145 38.58C99.8408 38.5588 99.5395 38.5085 99.2449 38.43C99.0736 38.3884 98.9196 38.294 98.8049 38.16C98.7247 38.0459 98.6827 37.9094 98.6849 37.77V12.47C98.6852 12.4022 98.6996 12.3352 98.7272 12.2732C98.7547 12.2112 98.7948 12.1557 98.8449 12.11C98.9948 11.9827 99.1732 11.8935 99.3649 11.85C99.6936 11.7726 100.028 11.7225 100.365 11.7C100.755 11.7 101.265 11.7 101.875 11.7C102.485 11.7 103.005 11.7 103.395 11.7C103.732 11.7205 104.067 11.7707 104.395 11.85C104.582 11.89 104.755 11.9798 104.895 12.11C104.99 12.206 105.044 12.3351 105.045 12.47V26.63C105.045 27.07 105.045 27.54 105.045 28.03C105.045 28.52 105.045 29.03 104.975 29.47C105.255 29.06 105.595 28.56 105.975 27.98C106.355 27.4 106.825 26.84 107.265 26.29L118.035 12.44C118.144 12.3092 118.264 12.1887 118.395 12.08C118.551 11.9629 118.727 11.8748 118.915 11.82C119.176 11.7473 119.444 11.7004 119.715 11.68C120.035 11.68 120.445 11.68 120.945 11.68C121.555 11.68 122.045 11.68 122.415 11.68C122.719 11.7036 123.02 11.7538 123.315 11.83C123.492 11.8722 123.655 11.9621 123.785 12.09C123.874 12.1962 123.92 12.3316 123.915 12.47L123.945 37.76ZM23.9449 20.76C24.1312 20.6124 24.2589 20.4032 24.3049 20.17V20C24.3049 16.6 24.3049 13.7 24.3049 10.8C24.3049 7.43 24.3049 4.06 24.3549 1.15V1.12V1.04C24.2627 0.755378 24.088 0.504573 23.853 0.31941C23.618 0.134247 23.3332 0.0230749 23.0349 0L22.9049 0C18.1695 0.781198 13.7428 2.85787 10.1149 6C9.96332 6.17436 9.85526 6.38222 9.79963 6.60648C9.744 6.83074 9.74239 7.065 9.79493 7.29C9.8189 7.40062 9.85582 7.50803 9.90493 7.61V7.68L9.95493 7.74L14.4649 12.33C17.1149 15.03 19.7749 17.73 22.6549 20.68L22.7049 20.73H22.7749C22.9522 20.8284 23.1552 20.8706 23.3571 20.8509C23.5589 20.8313 23.7499 20.7507 23.9049 20.62L23.9449 20.76ZM30.0349 20.15C30.0754 20.3848 30.1984 20.5974 30.3817 20.7496C30.5651 20.9018 30.7967 20.9835 31.0349 20.98C31.2022 20.9784 31.3666 20.9373 31.5149 20.86H31.5849L31.6349 20.81C34.6349 17.81 37.2149 15.14 39.8449 12.48L44.3649 7.9L44.4249 7.84V7.77C44.5546 7.51194 44.6047 7.22124 44.5691 6.93466C44.5335 6.64808 44.4138 6.3785 44.2249 6.16C40.6211 2.9633 36.2001 0.830668 31.4549 0L31.3249 0C31.0367 0.0255584 30.7619 0.133398 30.5332 0.310684C30.3045 0.487969 30.1315 0.727234 30.0349 1V1.08V1.2C30.0349 4.2 30.0349 7.53 30.0349 10.86C30.0349 13.86 30.0349 16.86 30.0349 20.06V20.16V20.15ZM50.5149 37.41C52.4979 33.4857 53.4553 29.1233 53.2979 24.7292C53.1406 20.3352 51.8736 16.0524 49.6149 12.28L49.5049 12.09L49.3849 11.9C49.1315 11.6296 48.7869 11.4626 48.4176 11.4312C48.0483 11.3998 47.6804 11.5062 47.3849 11.73L47.1949 11.91L36.3249 22.26C36.2369 22.3478 36.1687 22.4536 36.1249 22.57C36.0808 22.6815 36.0571 22.8001 36.0549 22.92C36.0418 23.0129 36.0418 23.1071 36.0549 23.2C36.0791 23.2914 36.1162 23.379 36.1649 23.46L42.0349 30.58C43.8249 32.74 45.6149 34.91 47.9249 37.73L48.0449 37.87C48.1963 38.0215 48.3789 38.1381 48.5799 38.2116C48.781 38.2851 48.9958 38.3139 49.2091 38.2958C49.4225 38.2777 49.6293 38.2132 49.8151 38.1068C50.0009 38.0005 50.1613 37.8548 50.2849 37.68L50.3449 37.56L50.4049 37.44L50.5149 37.41ZM30.2149 26.15C30.1479 26.2798 30.0975 26.4176 30.0649 26.56V26.66C30.0349 29.49 30.0349 33.71 30.0349 38C30.0349 42.29 30.0349 46.83 29.9849 50.26V50.34V50.42C30.0808 50.6913 30.2522 50.9296 30.479 51.1068C30.7058 51.2839 30.9785 51.3926 31.2649 51.42H31.3949C32.7517 51.1886 34.0889 50.8543 35.3949 50.42C36.6686 50.0055 37.9061 49.4871 39.0949 48.87C40.2071 48.2847 41.2735 47.6161 42.2849 46.87C43.2849 46.14 44.2049 45.37 45.0649 44.64C45.1773 44.5064 45.2653 44.3541 45.3249 44.19C45.3875 44.0271 45.4213 43.8545 45.4249 43.68C45.4408 43.5572 45.4408 43.4328 45.4249 43.31C45.4071 43.2035 45.3769 43.0995 45.3349 43L32.3749 26.23C32.2672 26.08 32.1431 25.9425 32.0049 25.82C31.8062 25.6435 31.5507 25.5441 31.2849 25.54C31.1409 25.527 30.9958 25.5434 30.8583 25.5881C30.7208 25.6328 30.5938 25.7049 30.4849 25.8C30.3753 25.9001 30.284 26.0186 30.2149 26.15ZM24.2149 26.55C24.1855 26.408 24.1385 26.2703 24.0749 26.14C24.0118 26.0102 23.9273 25.8919 23.8249 25.79C23.7161 25.6949 23.5891 25.6228 23.4516 25.5781C23.3141 25.5334 23.1689 25.517 23.0249 25.53C22.759 25.5332 22.5032 25.6327 22.3049 25.81C22.1664 25.9322 22.0423 26.0697 21.9349 26.22L9.03493 42.85C8.93094 43.0506 8.87934 43.2742 8.88493 43.5C8.88874 43.6745 8.92257 43.847 8.98493 44.01C9.04171 44.1733 9.12629 44.3255 9.23493 44.46C10.0849 45.2 11.0049 45.97 12.0049 46.7C13.0133 47.4455 14.0763 48.114 15.1849 48.7C16.3735 49.3204 17.611 49.8422 18.8849 50.26C20.1909 50.6945 21.5281 51.0288 22.8849 51.26H23.0349C23.3214 51.2326 23.5941 51.1239 23.8208 50.9468C24.0476 50.7696 24.219 50.5313 24.3149 50.26V50.18V50.1C24.3149 47.01 24.3149 42.4 24.3149 37.84C24.3149 33.68 24.3149 29.55 24.3149 26.52V26.42L24.2149 26.55ZM59.4749 43.6V48.24H60.0349V44.1H61.9049V43.6H59.4749Z" fill="#012C5F"></path> <path d="M1.56485 31.7198C2.02647 33.6905 2.71787 35.6002 3.62485 37.4098L3.68485 37.5298L3.74485 37.6498C3.88024 37.8428 4.05977 38.0006 4.2685 38.1102C4.47723 38.2198 4.70911 38.2779 4.94485 38.2798C5.32093 38.2697 5.67882 38.1158 5.94485 37.8498V37.8498L6.06485 37.7098C8.02485 35.3298 9.99485 32.9531 11.9748 30.5798C13.9548 28.2064 15.9049 25.8564 17.8249 23.5298C17.8736 23.4487 17.9107 23.3612 17.9349 23.2698C17.948 23.1769 17.948 23.0826 17.9349 22.9898C17.9327 22.8698 17.909 22.7513 17.8649 22.6398C17.8208 22.5235 17.7527 22.4178 17.6649 22.3298L7.11485 11.8898L6.92485 11.7098C6.71418 11.5515 6.46555 11.4516 6.20398 11.42C5.94241 11.3884 5.67714 11.4263 5.43485 11.5298V11.5298C5.24697 11.6082 5.07689 11.7239 4.93485 11.8698V11.8698L4.81485 12.0598L4.70485 12.2498C1.21091 18.0916 0.134569 25.0664 1.70485 31.6898L1.56485 31.7198Z" stroke="#012C5F" stroke-width="1.66" stroke-linecap="round" stroke-linejoin="round"></path> </svg> 