<?xml version="1.0" encoding="UTF-8"?> <svg xmlns="http://www.w3.org/2000/svg" width="360" height="219" viewBox="0 0 360 219" fill="none"> <mask id="mask0" mask-type="alpha" maskUnits="userSpaceOnUse" x="0" y="0" width="360" height="219"> <rect width="360" height="219" rx="10" fill="#DAE5F1"></rect> </mask> <g mask="url(#mask0)"> <path d="M269.427 139.516C269.753 138.666 269.773 137.728 269.482 136.865L269.293 136.538C262.799 125.333 257.266 115.786 251.869 106.097C245.443 95.0092 239.144 83.8166 233.607 74.209L233.498 74.0222L233.35 73.7654C232.516 73.0161 231.482 72.5256 230.374 72.3539C229.266 72.1821 228.131 72.3366 227.109 72.7984L226.898 72.9202L226.665 73.0556C212.494 84.7076 201.835 100.061 195.875 117.406C195.629 118.72 195.863 120.078 196.533 121.234C196.97 121.977 197.572 122.61 198.292 123.084L198.544 123.25L198.72 123.553L222.346 130.068C236.238 133.897 250.154 137.713 265.305 141.936L265.6 142.015L265.901 141.996C266.222 141.988 266.54 141.939 266.848 141.853C267.436 141.688 267.976 141.387 268.426 140.975C268.875 140.562 269.222 140.05 269.437 139.48L269.427 139.516ZM288.677 125.772C289.025 126.17 289.451 126.494 289.929 126.722C290.406 126.95 290.926 127.078 291.455 127.098C291.984 127.119 292.512 127.031 293.006 126.84C293.5 126.65 293.95 126.36 294.328 125.989C294.56 125.773 294.765 125.529 294.937 125.262L295.103 125.01L295.181 124.715C299.165 109.185 302.769 95.3706 306.351 81.5699L312.517 57.8513L312.596 57.5562L312.461 57.3228C312.393 56.2272 312.003 55.1763 311.34 54.3014C310.678 53.4264 309.772 52.7661 308.736 52.403L308.668 52.2863C290.63 48.7513 271.959 50.3072 254.748 56.7798L254.304 57.0371C253.41 57.6892 252.722 58.5854 252.324 59.6181C251.926 60.6509 251.834 61.7762 252.061 62.8592L252.209 63.116L252.399 63.4428C258.121 73.3169 264.48 84.2883 270.838 95.2596C276.574 105.157 282.31 115.055 288.425 125.606L288.615 125.933L288.677 125.772ZM389.015 143.585C388.07 126.869 382.907 110.669 374.009 96.4912C365.11 82.3138 352.764 70.621 338.122 62.502L337.396 62.1117L336.671 61.7214L336.576 61.558C335.235 61.166 333.796 61.2782 332.531 61.8734C331.266 62.4687 330.263 63.5058 329.71 64.7892L329.454 65.7482L313.293 120.799C313.163 121.26 313.135 121.745 313.21 122.218C313.37 123.015 313.789 123.737 314.401 124.273C314.66 124.528 314.955 124.746 315.275 124.92L315.343 125.036C324.182 128.333 336.116 132.768 348.1 137.236C358.114 140.943 368.048 144.728 381.152 149.513L381.82 149.75C382.614 149.989 383.451 150.048 384.27 149.923C385.09 149.798 385.872 149.493 386.559 149.029C387.246 148.565 387.822 147.954 388.244 147.241C388.666 146.527 388.924 145.729 388.999 144.904L388.979 144.385L388.96 143.866L389.015 143.585ZM300.566 145.263C300.595 145.819 300.694 146.369 300.861 146.901L301.05 147.228C306.461 156.565 314.578 170.571 322.532 184.672C330.92 199.145 339.239 213.876 345.75 225.164L345.871 225.374L346.02 225.631C346.848 226.369 347.871 226.853 348.967 227.025C350.063 227.197 351.186 227.05 352.201 226.602L352.411 226.48L352.645 226.344C356.724 222.991 360.539 219.331 364.058 215.395C367.485 211.595 370.594 207.52 373.352 203.211C375.898 199.152 378.132 194.907 380.037 190.511C381.979 186.268 383.538 181.903 384.934 177.85C385.151 176.536 384.919 175.188 384.276 174.022C384.046 173.609 383.762 173.228 383.433 172.889C383.162 172.615 382.863 172.37 382.541 172.159L382.46 172.019L382.392 171.902L307.841 141.39C307.193 141.102 306.514 140.889 305.818 140.753C304.842 140.558 303.827 140.715 302.954 141.197C302.46 141.432 302.018 141.763 301.654 142.172C301.291 142.581 301.013 143.059 300.838 143.577C300.649 144.119 300.557 144.689 300.566 145.263ZM281.665 157.994C281.295 157.582 280.874 157.218 280.413 156.911C279.961 156.606 279.46 156.38 278.933 156.241C278.39 156.124 277.83 156.118 277.285 156.225C276.74 156.331 276.223 156.548 275.765 156.861C274.913 157.379 274.272 158.181 273.956 159.126C273.723 159.789 273.567 160.476 273.489 161.174L262.478 240.837L262.456 241.068L262.524 241.185C262.541 241.581 262.601 241.975 262.704 242.358C262.832 242.804 263.017 243.232 263.254 243.63C263.599 244.198 264.039 244.703 264.555 245.121C265.059 245.544 265.632 245.877 266.249 246.104C270.405 246.814 274.971 247.691 279.659 248.187C284.42 248.738 289.215 248.93 294.005 248.76C299.107 248.532 304.181 247.885 309.178 246.827C314.346 245.739 319.424 244.255 324.366 242.39L324.81 242.133C325.704 241.481 326.392 240.585 326.79 239.552C327.188 238.519 327.28 237.394 327.053 236.311L326.905 236.054L326.756 235.797C320.844 225.596 312.064 210.447 303.365 195.437C295.41 181.711 287.537 168.125 281.719 158.088L281.53 157.761L281.665 157.994Z" fill="#11285A" fill-opacity="0.05"></path> <path d="M216.706 218.406C221.984 223.988 227.898 228.933 234.328 233.14L234.768 233.415L235.208 233.69C236.024 234.068 236.918 234.245 237.816 234.205C239.004 234.152 240.144 233.722 241.07 232.977C241.997 232.233 242.663 231.213 242.97 230.065V230.065L243.097 229.368C245.051 217.84 247.01 206.248 248.972 194.591C250.935 182.935 252.851 171.43 254.719 160.077C254.734 159.354 254.548 158.642 254.182 158.019C253.954 157.629 253.658 157.283 253.308 156.997C252.943 156.694 252.517 156.473 252.059 156.349L197.18 142.438L196.221 142.184C195.226 142.069 194.217 142.217 193.297 142.613C192.377 143.01 191.576 143.641 190.976 144.444V144.444C190.513 145.06 190.177 145.764 189.99 146.512L190.058 146.629L190.139 146.769L190.13 147.616L190.108 148.439C189.518 174.341 199.06 199.443 216.706 218.406V218.406Z" stroke="#11285A" stroke-opacity="0.05" stroke-width="2.35" stroke-linecap="round" stroke-linejoin="round"></path> </g> </svg> 